<svg xmlns="http://www.w3.org/2000/svg" xmlns:xlink="http://www.w3.org/1999/xlink" aria-hidden="true" role="img" class="iconify iconify--logos" width="31.88" height="32" preserveAspectRatio="xMidYMid meet" viewBox="0 0 256 257"><defs><linearGradient id="IconifyId1813088fe1fbc01" x1="-.828%" x2="57.636%" y1="7.652%" y2="78.411%"><stop offset="0%" stop-color="#41D1FF"></stop><stop offset="100%" stop-color="#BD34FE"></stop></linearGradient><linearGradient id="IconifyId1813088fe1fbc02" x1="43.376%" x2="50.316%" y1="2.242%" y2="89.03%"><stop offset="0%" stop-color="#FFEA83"></stop><stop offset="8.333%" stop-color="#FFDD35"></stop><stop offset="100%" stop-color="#FFA800"></stop></linearGradient></defs><path fill="url(#IconifyId1813088fe1fbc01)" d="M255.153 37.938L134.897 252.69c-2.483 4.413-8.862 4.413-11.345 0L2.296 37.938C-1.037 32.023 2.854 24.75 9.655 24.75h235.492c6.802 0 10.693 7.273 7.406 13.188z"></path><path fill="url(#IconifyId1813088fe1fbc02)" d="M150.405 1.748L65.57 92.516c-3.142 3.328-1.125 8.903 3.39 9.388l53.69 5.75c4.285.46 6.307 5.567 3.65 8.949l-54.837 70.364c-3.141 4.02 1.255 9.4 6.002 7.152l123.057-58.33c4.567-2.165 4.86-8.541.536-11.127l-51.488-30.767c-3.804-2.274-4.226-7.514-.814-10.373l68.219-57.194c4.128-3.47 1.631-10.334-3.76-10.604l-61.346-3.04a5.617 5.617 0 0 1-4.864-2.889l-26.857-49.006c-2.294-4.182-8.303-3.953-10.278.411z"></path></svg>
